<mxfile host="app.diagrams.net" modified="2023-09-21T12:33:26.812Z" agent="Mozilla/5.0 (Windows NT 10.0; Win64; x64; rv:104.0) Gecko/20100101 Firefox/104.0" etag="L7C-43f8Ll3v1gAeiUPX" version="21.8.0" type="github">
  <diagram name="Page-1" id="0raEqy0fPcMjJ6Yb8Ujp">
    <mxGraphModel dx="1434" dy="749" grid="1" gridSize="10" guides="1" tooltips="1" connect="1" arrows="1" fold="1" page="1" pageScale="1" pageWidth="850" pageHeight="1100" math="0" shadow="0">
      <root>
        <mxCell id="0" />
        <mxCell id="1" parent="0" />
        <mxCell id="vDVISBo94fgPaV42j5e0-4" value="" style="edgeStyle=orthogonalEdgeStyle;rounded=0;orthogonalLoop=1;jettySize=auto;html=1;" edge="1" parent="1" source="vDVISBo94fgPaV42j5e0-1" target="vDVISBo94fgPaV42j5e0-3">
          <mxGeometry relative="1" as="geometry" />
        </mxCell>
        <mxCell id="vDVISBo94fgPaV42j5e0-1" value="Start" style="ellipse;whiteSpace=wrap;html=1;aspect=fixed;" vertex="1" parent="1">
          <mxGeometry x="370" y="10" width="80" height="80" as="geometry" />
        </mxCell>
        <mxCell id="vDVISBo94fgPaV42j5e0-6" value="" style="edgeStyle=orthogonalEdgeStyle;rounded=0;orthogonalLoop=1;jettySize=auto;html=1;" edge="1" parent="1" source="vDVISBo94fgPaV42j5e0-3" target="vDVISBo94fgPaV42j5e0-5">
          <mxGeometry relative="1" as="geometry" />
        </mxCell>
        <mxCell id="vDVISBo94fgPaV42j5e0-3" value="X, Y, Z" style="shape=parallelogram;perimeter=parallelogramPerimeter;whiteSpace=wrap;html=1;fixedSize=1;" vertex="1" parent="1">
          <mxGeometry x="350" y="150" width="120" height="60" as="geometry" />
        </mxCell>
        <mxCell id="vDVISBo94fgPaV42j5e0-8" value="" style="edgeStyle=orthogonalEdgeStyle;rounded=0;orthogonalLoop=1;jettySize=auto;html=1;" edge="1" parent="1" source="vDVISBo94fgPaV42j5e0-5" target="vDVISBo94fgPaV42j5e0-7">
          <mxGeometry relative="1" as="geometry" />
        </mxCell>
        <mxCell id="vDVISBo94fgPaV42j5e0-5" value="&lt;div&gt;O = 0&lt;/div&gt;" style="whiteSpace=wrap;html=1;" vertex="1" parent="1">
          <mxGeometry x="350" y="260" width="120" height="60" as="geometry" />
        </mxCell>
        <mxCell id="vDVISBo94fgPaV42j5e0-10" value="" style="edgeStyle=orthogonalEdgeStyle;rounded=0;orthogonalLoop=1;jettySize=auto;html=1;" edge="1" parent="1" source="vDVISBo94fgPaV42j5e0-7" target="vDVISBo94fgPaV42j5e0-9">
          <mxGeometry relative="1" as="geometry" />
        </mxCell>
        <mxCell id="vDVISBo94fgPaV42j5e0-12" value="True" style="edgeLabel;html=1;align=center;verticalAlign=middle;resizable=0;points=[];" vertex="1" connectable="0" parent="vDVISBo94fgPaV42j5e0-10">
          <mxGeometry x="-0.2333" y="-1" relative="1" as="geometry">
            <mxPoint as="offset" />
          </mxGeometry>
        </mxCell>
        <mxCell id="vDVISBo94fgPaV42j5e0-14" value="" style="edgeStyle=orthogonalEdgeStyle;rounded=0;orthogonalLoop=1;jettySize=auto;html=1;" edge="1" parent="1" source="vDVISBo94fgPaV42j5e0-7" target="vDVISBo94fgPaV42j5e0-13">
          <mxGeometry relative="1" as="geometry" />
        </mxCell>
        <mxCell id="vDVISBo94fgPaV42j5e0-15" value="False" style="edgeLabel;html=1;align=center;verticalAlign=middle;resizable=0;points=[];" vertex="1" connectable="0" parent="vDVISBo94fgPaV42j5e0-14">
          <mxGeometry x="-0.4" relative="1" as="geometry">
            <mxPoint as="offset" />
          </mxGeometry>
        </mxCell>
        <mxCell id="vDVISBo94fgPaV42j5e0-16" style="edgeStyle=orthogonalEdgeStyle;rounded=0;orthogonalLoop=1;jettySize=auto;html=1;exitX=0.5;exitY=1;exitDx=0;exitDy=0;" edge="1" parent="1" source="vDVISBo94fgPaV42j5e0-7" target="vDVISBo94fgPaV42j5e0-18">
          <mxGeometry relative="1" as="geometry">
            <mxPoint x="410" y="550" as="targetPoint" />
          </mxGeometry>
        </mxCell>
        <mxCell id="vDVISBo94fgPaV42j5e0-17" value="False" style="edgeLabel;html=1;align=center;verticalAlign=middle;resizable=0;points=[];" vertex="1" connectable="0" parent="vDVISBo94fgPaV42j5e0-16">
          <mxGeometry x="-0.0808" y="-1" relative="1" as="geometry">
            <mxPoint as="offset" />
          </mxGeometry>
        </mxCell>
        <mxCell id="vDVISBo94fgPaV42j5e0-7" value="X &amp;lt; 1" style="rhombus;whiteSpace=wrap;html=1;" vertex="1" parent="1">
          <mxGeometry x="370" y="390" width="80" height="80" as="geometry" />
        </mxCell>
        <mxCell id="vDVISBo94fgPaV42j5e0-9" value="O" style="shape=document;whiteSpace=wrap;html=1;boundedLbl=1;" vertex="1" parent="1">
          <mxGeometry x="190" y="390" width="120" height="80" as="geometry" />
        </mxCell>
        <mxCell id="vDVISBo94fgPaV42j5e0-11" value="O = number of onions" style="text;html=1;align=center;verticalAlign=middle;resizable=0;points=[];autosize=1;strokeColor=none;fillColor=none;" vertex="1" parent="1">
          <mxGeometry x="40" y="20" width="140" height="30" as="geometry" />
        </mxCell>
        <mxCell id="vDVISBo94fgPaV42j5e0-13" value="O = Y(X*3)" style="whiteSpace=wrap;html=1;" vertex="1" parent="1">
          <mxGeometry x="510" y="400" width="120" height="60" as="geometry" />
        </mxCell>
        <mxCell id="vDVISBo94fgPaV42j5e0-20" value="" style="edgeStyle=orthogonalEdgeStyle;rounded=0;orthogonalLoop=1;jettySize=auto;html=1;" edge="1" parent="1" source="vDVISBo94fgPaV42j5e0-18" target="vDVISBo94fgPaV42j5e0-19">
          <mxGeometry relative="1" as="geometry" />
        </mxCell>
        <mxCell id="vDVISBo94fgPaV42j5e0-18" value="X &amp;lt; Z" style="rhombus;whiteSpace=wrap;html=1;" vertex="1" parent="1">
          <mxGeometry x="370" y="530" width="80" height="80" as="geometry" />
        </mxCell>
        <mxCell id="vDVISBo94fgPaV42j5e0-19" value="" style="whiteSpace=wrap;html=1;" vertex="1" parent="1">
          <mxGeometry x="510" y="540" width="120" height="60" as="geometry" />
        </mxCell>
      </root>
    </mxGraphModel>
  </diagram>
</mxfile>
